<svg width="118" height="50" viewBox="0 0 118 50" fill="none" xmlns="http://www.w3.org/2000/svg">
<path d="M58.36 23.3298V9.32983H61.4L65.86 18.2098L70.26 9.32983H73.3V23.3298H70.74V13.6698L66.84 21.3298H64.82L60.92 13.6698V23.3298H58.36ZM80.7763 23.5698C79.7763 23.5698 78.8896 23.3565 78.1163 22.9298C77.3429 22.5032 76.7363 21.9032 76.2963 21.1298C75.8563 20.3565 75.6363 19.4632 75.6363 18.4498C75.6363 17.4232 75.8496 16.5098 76.2763 15.7098C76.7163 14.9098 77.3163 14.2898 78.0763 13.8498C78.8496 13.3965 79.7563 13.1698 80.7963 13.1698C81.7696 13.1698 82.6296 13.3832 83.3763 13.8098C84.1229 14.2365 84.7029 14.8232 85.1163 15.5698C85.5429 16.3032 85.7563 17.1232 85.7563 18.0298C85.7563 18.1765 85.7496 18.3298 85.7363 18.4898C85.7363 18.6498 85.7296 18.8165 85.7163 18.9898H78.1763C78.2296 19.7632 78.4963 20.3698 78.9763 20.8098C79.4696 21.2498 80.0629 21.4698 80.7563 21.4698C81.2763 21.4698 81.7096 21.3565 82.0563 21.1298C82.4163 20.8898 82.6829 20.5832 82.8563 20.2098H85.4563C85.2696 20.8365 84.9563 21.4098 84.5163 21.9298C84.0896 22.4365 83.5563 22.8365 82.9163 23.1298C82.2896 23.4232 81.5763 23.5698 80.7763 23.5698ZM80.7963 15.2498C80.1696 15.2498 79.6163 15.4298 79.1363 15.7898C78.6563 16.1365 78.3496 16.6698 78.2163 17.3898H83.1563C83.1163 16.7365 82.8763 16.2165 82.4363 15.8298C81.9963 15.4432 81.4496 15.2498 80.7963 15.2498ZM87.9094 23.3298V13.4098H90.1694L90.3894 14.7498C90.7094 14.2698 91.1294 13.8898 91.6494 13.6098C92.1827 13.3165 92.796 13.1698 93.4894 13.1698C95.0227 13.1698 96.1094 13.7632 96.7494 14.9498C97.1094 14.4032 97.5894 13.9698 98.1894 13.6498C98.8027 13.3298 99.4694 13.1698 100.189 13.1698C101.483 13.1698 102.476 13.5565 103.169 14.3298C103.863 15.1032 104.209 16.2365 104.209 17.7298V23.3298H101.649V17.9698C101.649 17.1165 101.483 16.4632 101.149 16.0098C100.829 15.5565 100.329 15.3298 99.6494 15.3298C98.956 15.3298 98.396 15.5832 97.9694 16.0898C97.556 16.5965 97.3494 17.3032 97.3494 18.2098V23.3298H94.7894V17.9698C94.7894 17.1165 94.6227 16.4632 94.2894 16.0098C93.956 15.5565 93.4427 15.3298 92.7494 15.3298C92.0694 15.3298 91.516 15.5832 91.0894 16.0898C90.676 16.5965 90.4694 17.3032 90.4694 18.2098V23.3298H87.9094ZM111.46 23.5698C110.46 23.5698 109.573 23.3565 108.8 22.9298C108.027 22.5032 107.42 21.9032 106.98 21.1298C106.54 20.3565 106.32 19.4632 106.32 18.4498C106.32 17.4232 106.533 16.5098 106.96 15.7098C107.4 14.9098 108 14.2898 108.76 13.8498C109.533 13.3965 110.44 13.1698 111.48 13.1698C112.453 13.1698 113.313 13.3832 114.06 13.8098C114.807 14.2365 115.387 14.8232 115.8 15.5698C116.227 16.3032 116.44 17.1232 116.44 18.0298C116.44 18.1765 116.433 18.3298 116.42 18.4898C116.42 18.6498 116.413 18.8165 116.4 18.9898H108.86C108.913 19.7632 109.18 20.3698 109.66 20.8098C110.153 21.2498 110.747 21.4698 111.44 21.4698C111.96 21.4698 112.393 21.3565 112.74 21.1298C113.1 20.8898 113.367 20.5832 113.54 20.2098H116.14C115.953 20.8365 115.64 21.4098 115.2 21.9298C114.773 22.4365 114.24 22.8365 113.6 23.1298C112.973 23.4232 112.26 23.5698 111.46 23.5698ZM111.48 15.2498C110.853 15.2498 110.3 15.4298 109.82 15.7898C109.34 16.1365 109.033 16.6698 108.9 17.3898H113.84C113.8 16.7365 113.56 16.2165 113.12 15.8298C112.68 15.4432 112.133 15.2498 111.48 15.2498ZM64.7 43.5698C63.2867 43.5698 62.0733 43.2698 61.06 42.6698C60.0467 42.0565 59.2667 41.2098 58.72 40.1298C58.1733 39.0365 57.9 37.7765 57.9 36.3498C57.9 34.9232 58.1733 33.6632 58.72 32.5698C59.2667 31.4765 60.0467 30.6232 61.06 30.0098C62.0733 29.3965 63.2867 29.0898 64.7 29.0898C66.38 29.0898 67.7533 29.5098 68.82 30.3498C69.9 31.1765 70.5733 32.3432 70.84 33.8498H68.02C67.8467 33.0898 67.4733 32.4965 66.9 32.0698C66.34 31.6298 65.5933 31.4098 64.66 31.4098C63.3667 31.4098 62.3533 31.8498 61.62 32.7298C60.8867 33.6098 60.52 34.8165 60.52 36.3498C60.52 37.8832 60.8867 39.0898 61.62 39.9698C62.3533 40.8365 63.3667 41.2698 64.66 41.2698C65.5933 41.2698 66.34 41.0698 66.9 40.6698C67.4733 40.2565 67.8467 39.6898 68.02 38.9698H70.84C70.5733 40.4098 69.9 41.5365 68.82 42.3498C67.7533 43.1632 66.38 43.5698 64.7 43.5698ZM76.4661 43.5698C75.6128 43.5698 74.9128 43.4365 74.3661 43.1698C73.8194 42.8898 73.4128 42.5232 73.1461 42.0698C72.8794 41.6165 72.7461 41.1165 72.7461 40.5698C72.7461 39.6498 73.1061 38.9032 73.8261 38.3298C74.5461 37.7565 75.6261 37.4698 77.0661 37.4698H79.5861V37.2298C79.5861 36.5498 79.3928 36.0498 79.0061 35.7298C78.6194 35.4098 78.1394 35.2498 77.5661 35.2498C77.0461 35.2498 76.5928 35.3765 76.2061 35.6298C75.8194 35.8698 75.5794 36.2298 75.4861 36.7098H72.9861C73.0528 35.9898 73.2928 35.3632 73.7061 34.8298C74.1328 34.2965 74.6794 33.8898 75.3461 33.6098C76.0128 33.3165 76.7594 33.1698 77.5861 33.1698C78.9994 33.1698 80.1128 33.5232 80.9261 34.2298C81.7394 34.9365 82.1461 35.9365 82.1461 37.2298V43.3298H79.9661L79.7261 41.7298C79.4328 42.2632 79.0194 42.7032 78.4861 43.0498C77.9661 43.3965 77.2928 43.5698 76.4661 43.5698ZM77.0461 41.5698C77.7794 41.5698 78.3461 41.3298 78.7461 40.8498C79.1594 40.3698 79.4194 39.7765 79.5261 39.0698H77.3461C76.6661 39.0698 76.1794 39.1965 75.8861 39.4498C75.5928 39.6898 75.4461 39.9898 75.4461 40.3498C75.4461 40.7365 75.5928 41.0365 75.8861 41.2498C76.1794 41.4632 76.5661 41.5698 77.0461 41.5698ZM84.5891 43.3298V28.9298H87.1491V37.4298L90.6691 33.4098H93.7091L89.6491 37.9298L94.3691 43.3298H91.1691L87.1491 38.3498V43.3298H84.5891ZM99.9559 43.5698C98.9559 43.5698 98.0693 43.3565 97.2959 42.9298C96.5226 42.5032 95.9159 41.9032 95.4759 41.1298C95.0359 40.3565 94.8159 39.4632 94.8159 38.4498C94.8159 37.4232 95.0293 36.5098 95.4559 35.7098C95.8959 34.9098 96.4959 34.2898 97.2559 33.8498C98.0293 33.3965 98.9359 33.1698 99.9759 33.1698C100.949 33.1698 101.809 33.3832 102.556 33.8098C103.303 34.2365 103.883 34.8232 104.296 35.5698C104.723 36.3032 104.936 37.1232 104.936 38.0298C104.936 38.1765 104.929 38.3298 104.916 38.4898C104.916 38.6498 104.909 38.8165 104.896 38.9898H97.3559C97.4093 39.7632 97.6759 40.3698 98.1559 40.8098C98.6493 41.2498 99.2426 41.4698 99.9359 41.4698C100.456 41.4698 100.889 41.3565 101.236 41.1298C101.596 40.8898 101.863 40.5832 102.036 40.2098H104.636C104.449 40.8365 104.136 41.4098 103.696 41.9298C103.269 42.4365 102.736 42.8365 102.096 43.1298C101.469 43.4232 100.756 43.5698 99.9559 43.5698ZM99.9759 35.2498C99.3493 35.2498 98.7959 35.4298 98.3159 35.7898C97.8359 36.1365 97.5293 36.6698 97.3959 37.3898H102.336C102.296 36.7365 102.056 36.2165 101.616 35.8298C101.176 35.4432 100.629 35.2498 99.9759 35.2498Z" fill="white"/>
<g clip-path="url(#clip0_1576_8338)">
<path d="M13.1644 15.0526C12.5135 14.4018 11.452 14.3975 10.8588 15.1014C8.73343 17.6233 7.27325 20.6488 6.62633 23.9011C5.8707 27.6999 6.25852 31.6375 7.74073 35.2159C9.22295 38.7942 11.733 41.8527 14.9535 44.0046C18.1739 46.1564 21.9602 47.305 25.8334 47.305C29.7066 47.305 33.4928 46.1564 36.7133 44.0046C39.9338 41.8527 42.4438 38.7942 43.926 35.2159C45.4082 31.6375 45.796 27.6999 45.0404 23.9011C44.3935 20.6488 42.9333 17.6233 40.8079 15.1014C40.2147 14.3975 39.1532 14.4018 38.5024 15.0526L27.0119 26.5431C26.361 27.194 25.3057 27.194 24.6549 26.5431L13.1644 15.0526Z" fill="url(#paint0_linear_1576_8338)"/>
<path d="M38.774 11.1659C39.5091 10.6025 39.648 9.54293 39.0178 8.86424C37.6188 7.35747 35.956 6.02496 34.2009 5.03074C31.9632 3.76319 29.4978 2.94878 26.9454 2.63402C24.3931 2.31927 21.8037 2.51032 19.3251 3.19627C17.3835 3.73362 15.6143 4.64102 13.9643 5.76957C13.2051 6.28881 13.0794 7.34132 13.6445 8.06702L23.5324 20.7651C24.0949 21.4874 25.1347 21.6208 25.8613 21.0639L38.774 11.1659Z" fill="url(#paint1_linear_1576_8338)"/>
</g>
<defs>
<linearGradient id="paint0_linear_1576_8338" x1="2.08337" y1="49.7917" x2="49.5834" y2="1.24999" gradientUnits="userSpaceOnUse">
<stop stop-color="#0931E4"/>
<stop offset="0.554591" stop-color="#F85754"/>
<stop offset="1" stop-color="#FBB238"/>
</linearGradient>
<linearGradient id="paint1_linear_1576_8338" x1="-2.17674" y1="51.8755" x2="48.9898" y2="2.21916" gradientUnits="userSpaceOnUse">
<stop stop-color="#F85754"/>
<stop offset="1" stop-color="#FBB238"/>
</linearGradient>
<clipPath id="clip0_1576_8338">
<rect width="50" height="50" fill="white"/>
</clipPath>
</defs>
</svg>
